<mxfile host="app.diagrams.net" modified="2024-06-03T01:39:07.694Z" agent="Mozilla/5.0 (Windows NT 10.0; Win64; x64) AppleWebKit/537.36 (KHTML, like Gecko) Chrome/125.0.0.0 Safari/537.36" etag="c3ZU8gOxGBOjVJ5mKQam" version="24.2.1" type="device">
  <diagram name="Page-1" id="6mfObopIWBo_vmD8iYVF">
    <mxGraphModel dx="4923" dy="1917" grid="1" gridSize="10" guides="1" tooltips="1" connect="1" arrows="1" fold="1" page="1" pageScale="1" pageWidth="12000" pageHeight="1600" math="0" shadow="0">
      <root>
        <mxCell id="0" />
        <mxCell id="1" parent="0" />
        <mxCell id="xGicBdmRe1DplmpyOc8n-15" value="" style="group" vertex="1" connectable="0" parent="1">
          <mxGeometry x="30" y="890" width="720" height="200" as="geometry" />
        </mxCell>
        <mxCell id="xGicBdmRe1DplmpyOc8n-9" value="" style="rounded=1;whiteSpace=wrap;html=1;align=right;" vertex="1" parent="xGicBdmRe1DplmpyOc8n-15">
          <mxGeometry width="720" height="200" as="geometry" />
        </mxCell>
        <mxCell id="xGicBdmRe1DplmpyOc8n-10" value="" style="group" vertex="1" connectable="0" parent="xGicBdmRe1DplmpyOc8n-15">
          <mxGeometry x="30" y="20" width="150" height="150" as="geometry" />
        </mxCell>
        <mxCell id="xGicBdmRe1DplmpyOc8n-11" value="" style="whiteSpace=wrap;html=1;aspect=fixed;fillColor=#d5e8d4;strokeColor=#82b366;" vertex="1" parent="xGicBdmRe1DplmpyOc8n-10">
          <mxGeometry width="150" height="150" as="geometry" />
        </mxCell>
        <mxCell id="xGicBdmRe1DplmpyOc8n-12" value="" style="shape=cylinder3;whiteSpace=wrap;html=1;boundedLbl=1;backgroundOutline=1;size=15;" vertex="1" parent="xGicBdmRe1DplmpyOc8n-10">
          <mxGeometry x="45" y="20" width="60" height="80" as="geometry" />
        </mxCell>
        <mxCell id="xGicBdmRe1DplmpyOc8n-13" value="SOURCE" style="text;html=1;align=center;verticalAlign=middle;resizable=0;points=[];autosize=1;strokeColor=none;fillColor=none;" vertex="1" parent="xGicBdmRe1DplmpyOc8n-10">
          <mxGeometry x="35" y="110" width="80" height="30" as="geometry" />
        </mxCell>
        <mxCell id="xGicBdmRe1DplmpyOc8n-14" value="TPCH_SF1.LINEITEM" style="text;html=1;align=center;verticalAlign=middle;resizable=0;points=[];autosize=1;strokeColor=none;fillColor=none;fontSize=31;" vertex="1" parent="xGicBdmRe1DplmpyOc8n-15">
          <mxGeometry x="280" y="75" width="330" height="50" as="geometry" />
        </mxCell>
        <mxCell id="xGicBdmRe1DplmpyOc8n-16" value="" style="group" vertex="1" connectable="0" parent="1">
          <mxGeometry x="40" y="520" width="720" height="200" as="geometry" />
        </mxCell>
        <mxCell id="xGicBdmRe1DplmpyOc8n-1" value="" style="rounded=1;whiteSpace=wrap;html=1;align=right;" vertex="1" parent="xGicBdmRe1DplmpyOc8n-16">
          <mxGeometry width="720" height="200" as="geometry" />
        </mxCell>
        <mxCell id="xGicBdmRe1DplmpyOc8n-5" value="" style="group" vertex="1" connectable="0" parent="xGicBdmRe1DplmpyOc8n-16">
          <mxGeometry x="30" y="20" width="150" height="150" as="geometry" />
        </mxCell>
        <mxCell id="xGicBdmRe1DplmpyOc8n-2" value="" style="whiteSpace=wrap;html=1;aspect=fixed;fillColor=#d5e8d4;strokeColor=#82b366;" vertex="1" parent="xGicBdmRe1DplmpyOc8n-5">
          <mxGeometry width="150" height="150" as="geometry" />
        </mxCell>
        <mxCell id="xGicBdmRe1DplmpyOc8n-3" value="" style="shape=cylinder3;whiteSpace=wrap;html=1;boundedLbl=1;backgroundOutline=1;size=15;" vertex="1" parent="xGicBdmRe1DplmpyOc8n-5">
          <mxGeometry x="45" y="20" width="60" height="80" as="geometry" />
        </mxCell>
        <mxCell id="xGicBdmRe1DplmpyOc8n-4" value="SOURCE" style="text;html=1;align=center;verticalAlign=middle;resizable=0;points=[];autosize=1;strokeColor=none;fillColor=none;" vertex="1" parent="xGicBdmRe1DplmpyOc8n-5">
          <mxGeometry x="35" y="110" width="80" height="30" as="geometry" />
        </mxCell>
        <mxCell id="xGicBdmRe1DplmpyOc8n-7" value="TPCH_SF1.ORDERS" style="text;html=1;align=center;verticalAlign=middle;resizable=0;points=[];autosize=1;strokeColor=none;fillColor=none;fontSize=31;" vertex="1" parent="xGicBdmRe1DplmpyOc8n-16">
          <mxGeometry x="290" y="80" width="320" height="50" as="geometry" />
        </mxCell>
        <mxCell id="xGicBdmRe1DplmpyOc8n-17" value="" style="group" vertex="1" connectable="0" parent="1">
          <mxGeometry x="920" y="520" width="720" height="200" as="geometry" />
        </mxCell>
        <mxCell id="xGicBdmRe1DplmpyOc8n-18" value="" style="rounded=1;whiteSpace=wrap;html=1;align=right;" vertex="1" parent="xGicBdmRe1DplmpyOc8n-17">
          <mxGeometry width="720" height="200" as="geometry" />
        </mxCell>
        <mxCell id="xGicBdmRe1DplmpyOc8n-19" value="" style="group;fillColor=#dae8fc;strokeColor=#6c8ebf;" vertex="1" connectable="0" parent="xGicBdmRe1DplmpyOc8n-17">
          <mxGeometry x="30" y="20" width="150" height="150" as="geometry" />
        </mxCell>
        <mxCell id="xGicBdmRe1DplmpyOc8n-20" value="" style="whiteSpace=wrap;html=1;aspect=fixed;fillColor=#dae8fc;strokeColor=#6c8ebf;" vertex="1" parent="xGicBdmRe1DplmpyOc8n-19">
          <mxGeometry width="150" height="150" as="geometry" />
        </mxCell>
        <mxCell id="xGicBdmRe1DplmpyOc8n-22" value="MODEL" style="text;html=1;align=center;verticalAlign=middle;resizable=0;points=[];autosize=1;strokeColor=none;fillColor=none;" vertex="1" parent="xGicBdmRe1DplmpyOc8n-19">
          <mxGeometry x="40" y="110" width="70" height="30" as="geometry" />
        </mxCell>
        <mxCell id="xGicBdmRe1DplmpyOc8n-24" value="" style="html=1;shape=mxgraph.basic.isocube;isoAngle=15;" vertex="1" parent="xGicBdmRe1DplmpyOc8n-19">
          <mxGeometry x="35" y="20" width="80" height="80" as="geometry" />
        </mxCell>
        <mxCell id="xGicBdmRe1DplmpyOc8n-23" value="&lt;div style=&quot;color: rgb(212, 212, 212); background-color: rgb(30, 30, 30); font-family: Consolas, &amp;quot;Courier New&amp;quot;, monospace; font-size: 14px; line-height: 19px; white-space-collapse: preserve;&quot;&gt;&lt;br&gt;&lt;/div&gt;" style="text;html=1;align=center;verticalAlign=middle;resizable=0;points=[];autosize=1;strokeColor=none;fillColor=none;fontSize=31;" vertex="1" parent="xGicBdmRe1DplmpyOc8n-17">
          <mxGeometry x="364" y="90" width="20" height="30" as="geometry" />
        </mxCell>
        <mxCell id="xGicBdmRe1DplmpyOc8n-25" value="&lt;span style=&quot;font-size: 31px;&quot;&gt;STG_TPCH_ORDERS&lt;/span&gt;" style="text;html=1;align=center;verticalAlign=middle;resizable=0;points=[];autosize=1;strokeColor=none;fillColor=none;" vertex="1" parent="xGicBdmRe1DplmpyOc8n-17">
          <mxGeometry x="275" y="75" width="340" height="50" as="geometry" />
        </mxCell>
        <mxCell id="xGicBdmRe1DplmpyOc8n-26" value="" style="group" vertex="1" connectable="0" parent="1">
          <mxGeometry x="910" y="890" width="720" height="200" as="geometry" />
        </mxCell>
        <mxCell id="xGicBdmRe1DplmpyOc8n-27" value="" style="rounded=1;whiteSpace=wrap;html=1;align=right;" vertex="1" parent="xGicBdmRe1DplmpyOc8n-26">
          <mxGeometry width="720" height="200" as="geometry" />
        </mxCell>
        <mxCell id="xGicBdmRe1DplmpyOc8n-28" value="" style="group;fillColor=#dae8fc;strokeColor=#6c8ebf;" vertex="1" connectable="0" parent="xGicBdmRe1DplmpyOc8n-26">
          <mxGeometry x="30" y="20" width="150" height="150" as="geometry" />
        </mxCell>
        <mxCell id="xGicBdmRe1DplmpyOc8n-29" value="" style="whiteSpace=wrap;html=1;aspect=fixed;fillColor=#dae8fc;strokeColor=#6c8ebf;" vertex="1" parent="xGicBdmRe1DplmpyOc8n-28">
          <mxGeometry width="150" height="150" as="geometry" />
        </mxCell>
        <mxCell id="xGicBdmRe1DplmpyOc8n-30" value="MODEL" style="text;html=1;align=center;verticalAlign=middle;resizable=0;points=[];autosize=1;strokeColor=none;fillColor=none;" vertex="1" parent="xGicBdmRe1DplmpyOc8n-28">
          <mxGeometry x="40" y="110" width="70" height="30" as="geometry" />
        </mxCell>
        <mxCell id="xGicBdmRe1DplmpyOc8n-31" value="" style="html=1;shape=mxgraph.basic.isocube;isoAngle=15;" vertex="1" parent="xGicBdmRe1DplmpyOc8n-28">
          <mxGeometry x="35" y="20" width="80" height="80" as="geometry" />
        </mxCell>
        <mxCell id="xGicBdmRe1DplmpyOc8n-32" value="&lt;div style=&quot;color: rgb(212, 212, 212); background-color: rgb(30, 30, 30); font-family: Consolas, &amp;quot;Courier New&amp;quot;, monospace; font-size: 14px; line-height: 19px; white-space-collapse: preserve;&quot;&gt;&lt;br&gt;&lt;/div&gt;" style="text;html=1;align=center;verticalAlign=middle;resizable=0;points=[];autosize=1;strokeColor=none;fillColor=none;fontSize=31;" vertex="1" parent="xGicBdmRe1DplmpyOc8n-26">
          <mxGeometry x="364" y="90" width="20" height="30" as="geometry" />
        </mxCell>
        <mxCell id="xGicBdmRe1DplmpyOc8n-33" value="&lt;font style=&quot;font-size: 31px;&quot;&gt;STG_TPCH_LINE_ITEM&lt;/font&gt;" style="text;html=1;align=center;verticalAlign=middle;resizable=0;points=[];autosize=1;strokeColor=none;fillColor=none;" vertex="1" parent="xGicBdmRe1DplmpyOc8n-26">
          <mxGeometry x="275" y="70" width="370" height="50" as="geometry" />
        </mxCell>
        <mxCell id="xGicBdmRe1DplmpyOc8n-34" value="" style="group" vertex="1" connectable="0" parent="1">
          <mxGeometry x="1790" y="890" width="720" height="200" as="geometry" />
        </mxCell>
        <mxCell id="xGicBdmRe1DplmpyOc8n-35" value="" style="rounded=1;whiteSpace=wrap;html=1;align=right;" vertex="1" parent="xGicBdmRe1DplmpyOc8n-34">
          <mxGeometry width="720" height="200" as="geometry" />
        </mxCell>
        <mxCell id="xGicBdmRe1DplmpyOc8n-36" value="" style="group;fillColor=#dae8fc;strokeColor=#6c8ebf;" vertex="1" connectable="0" parent="xGicBdmRe1DplmpyOc8n-34">
          <mxGeometry x="30" y="20" width="150" height="150" as="geometry" />
        </mxCell>
        <mxCell id="xGicBdmRe1DplmpyOc8n-37" value="" style="whiteSpace=wrap;html=1;aspect=fixed;fillColor=#dae8fc;strokeColor=#6c8ebf;" vertex="1" parent="xGicBdmRe1DplmpyOc8n-36">
          <mxGeometry width="150" height="150" as="geometry" />
        </mxCell>
        <mxCell id="xGicBdmRe1DplmpyOc8n-38" value="MODEL" style="text;html=1;align=center;verticalAlign=middle;resizable=0;points=[];autosize=1;strokeColor=none;fillColor=none;" vertex="1" parent="xGicBdmRe1DplmpyOc8n-36">
          <mxGeometry x="40" y="110" width="70" height="30" as="geometry" />
        </mxCell>
        <mxCell id="xGicBdmRe1DplmpyOc8n-39" value="" style="html=1;shape=mxgraph.basic.isocube;isoAngle=15;" vertex="1" parent="xGicBdmRe1DplmpyOc8n-36">
          <mxGeometry x="35" y="20" width="80" height="80" as="geometry" />
        </mxCell>
        <mxCell id="xGicBdmRe1DplmpyOc8n-40" value="&lt;div style=&quot;color: rgb(212, 212, 212); background-color: rgb(30, 30, 30); font-family: Consolas, &amp;quot;Courier New&amp;quot;, monospace; font-size: 14px; line-height: 19px; white-space-collapse: preserve;&quot;&gt;&lt;br&gt;&lt;/div&gt;" style="text;html=1;align=center;verticalAlign=middle;resizable=0;points=[];autosize=1;strokeColor=none;fillColor=none;fontSize=31;" vertex="1" parent="xGicBdmRe1DplmpyOc8n-34">
          <mxGeometry x="364" y="90" width="20" height="30" as="geometry" />
        </mxCell>
        <mxCell id="xGicBdmRe1DplmpyOc8n-41" value="&lt;font style=&quot;font-size: 31px;&quot;&gt;DIM_ORDER_ITEMS&lt;/font&gt;" style="text;html=1;align=center;verticalAlign=middle;resizable=0;points=[];autosize=1;strokeColor=none;fillColor=none;" vertex="1" parent="xGicBdmRe1DplmpyOc8n-34">
          <mxGeometry x="300" y="75" width="320" height="50" as="geometry" />
        </mxCell>
        <mxCell id="xGicBdmRe1DplmpyOc8n-42" value="" style="group" vertex="1" connectable="0" parent="1">
          <mxGeometry x="2670" y="890" width="720" height="200" as="geometry" />
        </mxCell>
        <mxCell id="xGicBdmRe1DplmpyOc8n-43" value="" style="rounded=1;whiteSpace=wrap;html=1;align=right;" vertex="1" parent="xGicBdmRe1DplmpyOc8n-42">
          <mxGeometry width="720" height="200" as="geometry" />
        </mxCell>
        <mxCell id="xGicBdmRe1DplmpyOc8n-44" value="" style="group;fillColor=#dae8fc;strokeColor=#6c8ebf;" vertex="1" connectable="0" parent="xGicBdmRe1DplmpyOc8n-42">
          <mxGeometry x="30" y="20" width="150" height="150" as="geometry" />
        </mxCell>
        <mxCell id="xGicBdmRe1DplmpyOc8n-45" value="" style="whiteSpace=wrap;html=1;aspect=fixed;fillColor=#dae8fc;strokeColor=#6c8ebf;" vertex="1" parent="xGicBdmRe1DplmpyOc8n-44">
          <mxGeometry width="150" height="150" as="geometry" />
        </mxCell>
        <mxCell id="xGicBdmRe1DplmpyOc8n-46" value="MODEL" style="text;html=1;align=center;verticalAlign=middle;resizable=0;points=[];autosize=1;strokeColor=none;fillColor=none;" vertex="1" parent="xGicBdmRe1DplmpyOc8n-44">
          <mxGeometry x="40" y="110" width="70" height="30" as="geometry" />
        </mxCell>
        <mxCell id="xGicBdmRe1DplmpyOc8n-47" value="" style="html=1;shape=mxgraph.basic.isocube;isoAngle=15;" vertex="1" parent="xGicBdmRe1DplmpyOc8n-44">
          <mxGeometry x="35" y="20" width="80" height="80" as="geometry" />
        </mxCell>
        <mxCell id="xGicBdmRe1DplmpyOc8n-48" value="&lt;div style=&quot;color: rgb(212, 212, 212); background-color: rgb(30, 30, 30); font-family: Consolas, &amp;quot;Courier New&amp;quot;, monospace; font-size: 14px; line-height: 19px; white-space-collapse: preserve;&quot;&gt;&lt;br&gt;&lt;/div&gt;" style="text;html=1;align=center;verticalAlign=middle;resizable=0;points=[];autosize=1;strokeColor=none;fillColor=none;fontSize=31;" vertex="1" parent="xGicBdmRe1DplmpyOc8n-42">
          <mxGeometry x="364" y="90" width="20" height="30" as="geometry" />
        </mxCell>
        <mxCell id="xGicBdmRe1DplmpyOc8n-49" value="&lt;font style=&quot;font-size: 31px;&quot;&gt;DIM_ORDER_ITEMS_SUMMARY&lt;/font&gt;" style="text;html=1;align=center;verticalAlign=middle;resizable=0;points=[];autosize=1;strokeColor=none;fillColor=none;" vertex="1" parent="xGicBdmRe1DplmpyOc8n-42">
          <mxGeometry x="210" y="75" width="490" height="50" as="geometry" />
        </mxCell>
        <mxCell id="xGicBdmRe1DplmpyOc8n-50" value="" style="group" vertex="1" connectable="0" parent="1">
          <mxGeometry x="3560" y="680" width="720" height="200" as="geometry" />
        </mxCell>
        <mxCell id="xGicBdmRe1DplmpyOc8n-51" value="" style="rounded=1;whiteSpace=wrap;html=1;align=right;" vertex="1" parent="xGicBdmRe1DplmpyOc8n-50">
          <mxGeometry width="720" height="200" as="geometry" />
        </mxCell>
        <mxCell id="xGicBdmRe1DplmpyOc8n-52" value="" style="group;fillColor=#dae8fc;strokeColor=#6c8ebf;" vertex="1" connectable="0" parent="xGicBdmRe1DplmpyOc8n-50">
          <mxGeometry x="30" y="20" width="150" height="150" as="geometry" />
        </mxCell>
        <mxCell id="xGicBdmRe1DplmpyOc8n-53" value="" style="whiteSpace=wrap;html=1;aspect=fixed;fillColor=#dae8fc;strokeColor=#6c8ebf;" vertex="1" parent="xGicBdmRe1DplmpyOc8n-52">
          <mxGeometry width="150" height="150" as="geometry" />
        </mxCell>
        <mxCell id="xGicBdmRe1DplmpyOc8n-54" value="MODEL" style="text;html=1;align=center;verticalAlign=middle;resizable=0;points=[];autosize=1;strokeColor=none;fillColor=none;" vertex="1" parent="xGicBdmRe1DplmpyOc8n-52">
          <mxGeometry x="40" y="110" width="70" height="30" as="geometry" />
        </mxCell>
        <mxCell id="xGicBdmRe1DplmpyOc8n-55" value="" style="html=1;shape=mxgraph.basic.isocube;isoAngle=15;" vertex="1" parent="xGicBdmRe1DplmpyOc8n-52">
          <mxGeometry x="35" y="20" width="80" height="80" as="geometry" />
        </mxCell>
        <mxCell id="xGicBdmRe1DplmpyOc8n-56" value="&lt;div style=&quot;color: rgb(212, 212, 212); background-color: rgb(30, 30, 30); font-family: Consolas, &amp;quot;Courier New&amp;quot;, monospace; font-size: 14px; line-height: 19px; white-space-collapse: preserve;&quot;&gt;&lt;br&gt;&lt;/div&gt;" style="text;html=1;align=center;verticalAlign=middle;resizable=0;points=[];autosize=1;strokeColor=none;fillColor=none;fontSize=31;" vertex="1" parent="xGicBdmRe1DplmpyOc8n-50">
          <mxGeometry x="364" y="90" width="20" height="30" as="geometry" />
        </mxCell>
        <mxCell id="xGicBdmRe1DplmpyOc8n-57" value="&lt;font style=&quot;font-size: 31px;&quot;&gt;FCT_ORDERS&lt;/font&gt;" style="text;html=1;align=center;verticalAlign=middle;resizable=0;points=[];autosize=1;strokeColor=none;fillColor=none;" vertex="1" parent="xGicBdmRe1DplmpyOc8n-50">
          <mxGeometry x="345" y="75" width="230" height="50" as="geometry" />
        </mxCell>
        <mxCell id="xGicBdmRe1DplmpyOc8n-58" style="edgeStyle=orthogonalEdgeStyle;rounded=0;orthogonalLoop=1;jettySize=auto;html=1;exitX=1;exitY=0.5;exitDx=0;exitDy=0;entryX=0;entryY=0.5;entryDx=0;entryDy=0;" edge="1" parent="1" source="xGicBdmRe1DplmpyOc8n-1" target="xGicBdmRe1DplmpyOc8n-18">
          <mxGeometry relative="1" as="geometry" />
        </mxCell>
        <mxCell id="xGicBdmRe1DplmpyOc8n-59" style="edgeStyle=orthogonalEdgeStyle;rounded=0;orthogonalLoop=1;jettySize=auto;html=1;exitX=1;exitY=0.5;exitDx=0;exitDy=0;entryX=0;entryY=0.5;entryDx=0;entryDy=0;" edge="1" parent="1" source="xGicBdmRe1DplmpyOc8n-9" target="xGicBdmRe1DplmpyOc8n-27">
          <mxGeometry relative="1" as="geometry" />
        </mxCell>
        <mxCell id="xGicBdmRe1DplmpyOc8n-60" style="edgeStyle=orthogonalEdgeStyle;rounded=0;orthogonalLoop=1;jettySize=auto;html=1;exitX=1;exitY=0.5;exitDx=0;exitDy=0;entryX=0;entryY=0.5;entryDx=0;entryDy=0;curved=1;" edge="1" parent="1" source="xGicBdmRe1DplmpyOc8n-18" target="xGicBdmRe1DplmpyOc8n-35">
          <mxGeometry relative="1" as="geometry" />
        </mxCell>
        <mxCell id="xGicBdmRe1DplmpyOc8n-62" style="edgeStyle=orthogonalEdgeStyle;rounded=0;orthogonalLoop=1;jettySize=auto;html=1;exitX=1;exitY=0.5;exitDx=0;exitDy=0;entryX=0;entryY=0.5;entryDx=0;entryDy=0;" edge="1" parent="1" source="xGicBdmRe1DplmpyOc8n-27" target="xGicBdmRe1DplmpyOc8n-35">
          <mxGeometry relative="1" as="geometry" />
        </mxCell>
        <mxCell id="xGicBdmRe1DplmpyOc8n-68" style="edgeStyle=orthogonalEdgeStyle;rounded=0;orthogonalLoop=1;jettySize=auto;html=1;exitX=1;exitY=0.5;exitDx=0;exitDy=0;entryX=0;entryY=0.5;entryDx=0;entryDy=0;" edge="1" parent="1" source="xGicBdmRe1DplmpyOc8n-35" target="xGicBdmRe1DplmpyOc8n-43">
          <mxGeometry relative="1" as="geometry" />
        </mxCell>
        <mxCell id="xGicBdmRe1DplmpyOc8n-69" style="edgeStyle=orthogonalEdgeStyle;rounded=0;orthogonalLoop=1;jettySize=auto;html=1;exitX=1;exitY=0.5;exitDx=0;exitDy=0;entryX=0;entryY=0.5;entryDx=0;entryDy=0;curved=1;" edge="1" parent="1" source="xGicBdmRe1DplmpyOc8n-43" target="xGicBdmRe1DplmpyOc8n-51">
          <mxGeometry relative="1" as="geometry" />
        </mxCell>
        <mxCell id="xGicBdmRe1DplmpyOc8n-70" style="edgeStyle=orthogonalEdgeStyle;rounded=0;orthogonalLoop=1;jettySize=auto;html=1;exitX=1;exitY=0.5;exitDx=0;exitDy=0;entryX=0;entryY=0.5;entryDx=0;entryDy=0;curved=1;" edge="1" parent="1" source="xGicBdmRe1DplmpyOc8n-18" target="xGicBdmRe1DplmpyOc8n-51">
          <mxGeometry relative="1" as="geometry" />
        </mxCell>
      </root>
    </mxGraphModel>
  </diagram>
</mxfile>
